<svg id="Layer_1" data-name="Layer 1" xmlns="http://www.w3.org/2000/svg" viewBox="0 0 210.74 250.29"><defs><style>.cls-1{fill:#593d0f;}.cls-2{fill:#b5a685;}.cls-3{fill:#d35e93;}.cls-4{fill:#af174e;}.cls-5{fill:#9b164c;}.cls-6{fill:#3793cc;}.cls-7{fill:#40a5cc;}.cls-8{fill:#2b7499;}.cls-9{fill:#b24b7a;opacity:0.67;}.cls-10{fill:#c60920;}.cls-11{fill:#a50722;}.cls-12{fill:#f9f9f9;}.cls-13{fill:#b5578a;}</style></defs><title>girl02</title><path class="cls-1" d="M45.67,19s-2.17,9.5-.67,26.5S55.46,73.85,60.67,81c9.33,12.83,7.67,39.75,5.67,47.25S52,157,52,157H178s-9.5-19.25-11-26.25-3-32.62,4.5-46.62,12.5-19.31,16-34.31,0-30.95,0-30.95Z" transform="translate(-40.07 -18.71)"/><path class="cls-2" d="M66.33,18.71s1.23,24.75,4.17,33.9C72.92,60.13,93,79.82,99.33,83s18.48,10.24,25.91,8.32,17.43-12.49,22.76-16,15-12.17,17-22.09,3-34.45,3-34.45Z" transform="translate(-40.07 -18.71)"/><path class="cls-3" d="M224.38,145.11c1.83,1.75,2.82,9.31,3.47,12.65s1.92,17.88.6,14.88c-2.56-5.83-5-10.77-6.61-12.8s-3.22,9.24-3.74,11.13c-.9,3.3-2.35,8.49-3.59,7.11s.31-4.66-.65-7.5c-.84-2.49-2.71-4.71-3.68-4.71-1.49,0-5.93,15-7.17,12.17-.82-1.92.76-6.08-1.21-8.26-1.76-1.95-9.93-4-9.93-4l20.36-17.73S221.7,142.55,224.38,145.11Z" transform="translate(-40.07 -18.71)"/><path class="cls-3" d="M221.68,86.6a20.78,20.78,0,0,0,5.77-5.47c2-3.16,4.84-9.11,4.95-7,.19,3.75-3.06,14-3.07,16s-.68,3.83,3,2,6.33-5.57,8.69-4.79c1.41.46-6.9,14.15-5.24,15.15.75.45,4.51.18,7.72-1.56,3.92-2.13,7.42-9.19,7.32-5.88-.08,2.59-2.07,6.38-4.25,9.45a21.77,21.77,0,0,1-5.65,5.18l-22.82-4Z" transform="translate(-40.07 -18.71)"/><path class="cls-4" d="M203.18,122s11,4.39,14.91,8.58c4.88,5.21,8.49,12.73,9,17.07.65,5.73-10.71,9.54-19.22,12.74s-16,5.36-16,5.36L188.6,122Z" transform="translate(-40.07 -18.71)"/><path class="cls-5" d="M156.85,84.48s6.78,11.39,16.44,14.09,26,2.44,34.51-1.19A37.92,37.92,0,0,0,221.68,86.6s4.3,10.54,6.77,13.95c2.2,3,12.46,9.14,12.46,9.14s-7.36,7-12.55,9.94-10.36,5.45-15.19,5.93-20.17.91-20.17.91L146.51,87.79Z" transform="translate(-40.07 -18.71)"/><path class="cls-6" d="M89,87.4S51,115.24,48,122s-11,51.64-6.67,70.51,16.07,46.16,23.2,42.35,10.13-20.45,10.13-20.45L61,269H191.5l-15.83-54.64S189,226.33,192,223s8.49-51.8,8-65c-.37-10.37-1.35-30.48-8-37.65-11.08-11.92-38.67-34.83-38.67-34.83Z" transform="translate(-40.07 -18.71)"/><path class="cls-4" d="M91.33,98.9s-4.67-16.57-1.67-17.4,15-2.5,25-2.5S143,73.33,148,75.33s10.56,6.55,8.61,12.94S91.33,98.9,91.33,98.9Z" transform="translate(-40.07 -18.71)"/><path class="cls-7" d="M70.35,134.34,61,152.5c-4.25,8.25-6,31.26-6,31.26s2.25-14,4.75-19.5,5-15.76,7.5-18.76,6-9.69,6-9.69Z" transform="translate(-40.07 -18.71)"/><path class="cls-8" d="M94.25,140.12a113.65,113.65,0,0,1-1.42,21.22c-1.83,9.91-12,44.79-15.08,48.91s-6.07,14.51-6.07,14.51S79,202.4,81.25,194s8.41-28,9.45-33.7S94.25,140.12,94.25,140.12Z" transform="translate(-40.07 -18.71)"/><path class="cls-8" d="M143.52,139.5s.73,21.93,5.48,36,13.75,31.54,17.5,34.29,19.88,12.46,19.88,12.46S168.65,209.75,164.95,204s-15.2-33.08-16.7-41.17S143.52,139.5,143.52,139.5Z" transform="translate(-40.07 -18.71)"/><path class="cls-7" d="M164.95,135.81S176.5,162.68,178,169a61.43,61.43,0,0,0,3.5,10.59s0-10.38-3-16.72S167,134.34,167,134.34Z" transform="translate(-40.07 -18.71)"/><path class="cls-9" d="M98,50.28s5.37.85,7,.85,6.07-3,7.7-3.17,5.33,1.42,6.46,1.54,2.75-1.38,4.75-1.13S129.25,51,131.13,51s8.14.14,8.14.14a59.78,59.78,0,0,1-5.76,5.73c-2.12,1.63-3.75,3.63-9.5,5.25s-11.12-.25-14.25-1.87S98,50.28,98,50.28Z" transform="translate(-40.07 -18.71)"/><path class="cls-5" d="M93,50.5s5.83-.5,7.17,0,5,3.5,6.67,3.5,4.2-3.33,6.42-2.47,4.08,2.8,5.75,2.47,3.24-2.45,5.41-2.28,3.26,1.55,5.26,2.33,6.08-2.22,8.08-2.72,6.92,0,6.92,0-5.83.58-6.67.75a49,49,0,0,0-5.17,2.67,5.66,5.66,0,0,1-4.33,0c-.67-.17-3.42-1.83-4.67-1.67s-3.08,1.63-4.75,1.86-4.79-1.14-5.21-1.41a2.77,2.77,0,0,0-2.21-.45,18.24,18.24,0,0,0-3.42,1.33,2.71,2.71,0,0,1-2.67.56c-.74-.2-3.67-3.14-5.08-3.47S93,50.5,93,50.5Z" transform="translate(-40.07 -18.71)"/><polygon class="cls-10" points="53.76 59.21 63.55 121.29 99.47 121.29 104.43 57.79 88.99 51.29 65.93 51.29 53.76 59.21"/><ellipse class="cls-11" cx="81.49" cy="121.41" rx="17.94" ry="4.31"/><path class="cls-12" d="M105.67,74.91A25.49,25.49,0,0,0,99.33,77a32.54,32.54,0,0,1-6.5,2.38s-1-5.87.82-6.62S96,68.5,96,66.5s2.75-1.75,3.25-3.5,1.25-5.73,4.5-6.49S115.17,53.9,121.83,55s12.42,2.29,14.17,3.8.83,3.45,2.33,4.7,4,1.59,4.47,2.36c.7,1.2-.54,1.77.07,4.07.51,1.89.22,3.17,2,4.07s.33,6.22.33,6.22-7.67-4.61-13.42-5.26-10.22-2.16-15-1.66S105.67,74.91,105.67,74.91Z" transform="translate(-40.07 -18.71)"/><path class="cls-3" d="M75.88,140.12s-7.5-5.87-6.12-8.75,6.06-5.76,6.06-7.26S73.15,106.94,78,102.06s12.65-6.33,16.26-6.61,17.65,0,19.39,7.3c2.49,10.49-3.43,15.15-5.81,17.63s-8.25,5.73-8.37,8,1.13,1.63.63,5.75-2.62,9.41-5.5,9.58-11.87.17-14-.71A26.44,26.44,0,0,1,75.88,140.12Z" transform="translate(-40.07 -18.71)"/><path class="cls-3" d="M137,115.07c-1.94-3.9-7.79-12.25-4-19.69,2.09-4.09,7.14-5.87,11.75-5.64,4.84.25,13.43,3.17,16.63,7.13,3.69,4.57,7,11.76,5.75,17.12s-3.5,9.63-2.87,13.75,4.76,1.76,7.13,5.63c4.13,6.75-3.75,8.42-11.62,10.42s-12.34-.79-16.23-.67-.64-9.37-.64-9.37a31.74,31.74,0,0,0-2.11-12.49C139.38,118,137.81,116.69,137,115.07Z" transform="translate(-40.07 -18.71)"/><path class="cls-13" d="M99.92,127.3a40,40,0,0,1-2.67,3.9c-1.22,1.48-2.88,2.12-3.42,2.7S92.7,135,92.7,135a9.89,9.89,0,0,0,3.12-1.59c1.27-1.06,4.08-3,4.08-3a9,9,0,0,1-.32-1,5.3,5.3,0,0,1,0-1.38A3.92,3.92,0,0,1,99.92,127.3Z" transform="translate(-40.07 -18.71)"/><path class="cls-13" d="M141.62,123.45a16.51,16.51,0,0,0,1.63,3c1.33,2.11,2.44,1.93,2.44,1.93a3.86,3.86,0,0,0-1.19-2.5,53,53,0,0,1-3.69-4.51Z" transform="translate(-40.07 -18.71)"/></svg>