<svg id="Layer_1" data-name="Layer 1" xmlns="http://www.w3.org/2000/svg" viewBox="0 0 210.37 250.63"><defs><style>.cls-1{fill:#2b7499;}.cls-2{fill:#593d0f;}.cls-3{fill:#998c71;}.cls-4{fill:#b5a685;}.cls-5{fill:#d35e93;}.cls-6{fill:#af174e;}.cls-7{fill:#9b164c;}.cls-8{fill:#3793cc;}.cls-9{fill:#7f133f;}.cls-10{fill:#40a5cc;}.cls-11{fill:#c60920;}.cls-12{fill:#f9f9f9;}.cls-13{fill:#b24b7a;opacity:0.67;}</style></defs><title>girl1</title><polygon class="cls-1" points="22.7 235.99 19.45 250 140.95 249.96 135.7 235.79 22.7 235.99"/><path class="cls-2" d="M57.67,21a107.44,107.44,0,0,0-1.2,29.36c1.5,17,11,25.53,16.2,32.68,9.33,12.83,7.67,39.25,5.67,46.75S64,158,64,158H190s-9.5-18.75-11-25.75-3-32.37,4.5-46.37,12.5-19.19,16-34.19,0-30.89,0-30.89Z" transform="translate(-44.3 -20.71)"/><path class="cls-3" d="M107.61,77.18s5.39,11.63,3.73,21.17,0,18.32-5.33,21.76-12.33,8.78-12.33,8.78,26,11.83,42,11.45,26-6.11,26-6.11-13-13.36-13.33-21,2.82-33.83,2.82-33.83Z" transform="translate(-44.3 -20.71)"/><path class="cls-4" d="M78.33,20.71s1.23,24.75,4.17,33.9c2.42,7.52,22.5,27.2,28.83,30.4s18.48,10.24,25.91,8.32,17.43-12.49,22.76-16,15-12.17,17-22.09,3-34.45,3-34.45Z" transform="translate(-44.3 -20.71)"/><path class="cls-5" d="M228.47,183c1.84,1.74,2.86,9.3,3.53,12.63s2,17.87.67,14.88c-2.59-5.82-5-10.75-6.67-12.77s-3.18,9.25-3.69,11.14c-.89,3.31-2.31,8.5-3.56,7.13s.29-4.66-.69-7.5c-.85-2.49-2.73-4.7-3.7-4.7-1.49,0-5.86,15.07-7.11,12.2-.83-1.91.74-6.08-1.25-8.25-1.77-1.94-9.94-3.93-9.94-3.93L216.33,186S225.78,180.44,228.47,183Z" transform="translate(-44.3 -20.71)"/><path class="cls-5" d="M225.5,124.5a20.78,20.78,0,0,0,5.75-5.5c2-3.17,4.8-9.14,4.92-7,.21,3.75-3,14-3,16s-.67,3.83,3,2,6.31-5.6,8.67-4.83c1.42.46-6.83,14.18-5.17,15.17.75.45,4.52.16,7.71-1.59,3.91-2.15,7.38-9.23,7.29-5.92-.07,2.59-2,6.39-4.21,9.46a21.77,21.77,0,0,1-5.63,5.2L222,143.58Z" transform="translate(-44.3 -20.71)"/><path class="cls-6" d="M207.17,160s8.24,5,12.58,8.71c5,4.31,10.91,12.48,11.42,16.83.67,5.73-10.67,9.59-19.17,12.82s-15.94,5.44-15.94,5.44L192.58,160Z" transform="translate(-44.3 -20.71)"/><path class="cls-7" d="M160.67,122.67s6.83,11.36,16.5,14,26,2.32,34.5-1.35A37.92,37.92,0,0,0,225.5,124.5s4.35,10.52,6.83,13.92c2.21,3,12.5,9.08,12.5,9.08s-7.33,7-12.5,10-10.33,5.5-15.17,6-20.17,1-20.17,1L150.33,126Z" transform="translate(-44.3 -20.71)"/><path class="cls-8" d="M100,124.47s-12.79,6.26-17.46,8.28S65.27,140,57.6,144.33s-13.3,18.84-13.3,45.12,3,52,6,55.07,22,26.48,22,26.48H176s28-39.42,28-42.79V180c0-9.43-.89-24-12.58-31.33-11.42-7.2-36.72-22.32-36.72-22.32Z" transform="translate(-44.3 -20.71)"/><path class="cls-6" d="M115.33,101.67s-10-5.67-12.67,0-7.67,23,0,27.33,22,9,32.33,7.33,25-5.33,26.67-11.67S163,109,159,104.33a35.36,35.36,0,0,0-9.71-7.52s-.17,3.65-.47,5.37a5.11,5.11,0,0,1-3.49,4.48c-6.33,2.67-17.2,3.67-20.93,2.33S115.33,101.67,115.33,101.67Z" transform="translate(-44.3 -20.71)"/><path class="cls-9" d="M115.33,101.67s3.72,6.93,8,9.75,13.14,4.23,17,3.81c7.94-.87,11.65-4.07,11.65-4.07a93,93,0,0,1-13.17.67C134,111.5,128,110.68,124.4,109,121.09,107.46,115.33,101.67,115.33,101.67Z" transform="translate(-44.3 -20.71)"/><path class="cls-10" d="M87.83,168.5S80,194.92,79,199.83s-2.74,17.44-2.74,17.44A17,17,0,0,1,79,221.83c1.17,2.83,8.86,28.17,8.86,28.17s-2.5-17.5-3.17-21.17-5-13.17-5.5-13.17S87.83,168.5,87.83,168.5Z" transform="translate(-44.3 -20.71)"/><path class="cls-10" d="M161.67,170.5l11.54,48s-5.54,7-7.71,10.36-12.17,18.5-12.17,18.5,4.9-12.17,8.24-17.33,7.93-10.83,7.93-10.83Z" transform="translate(-44.3 -20.71)"/><polygon class="cls-11" points="54.28 209.29 60.37 250.46 96.36 250.63 103.7 209.29 54.28 209.29"/><path class="cls-12" d="M96.63,229a144.7,144.7,0,0,0,14.13,3.5c5.88,1,18.88,1.25,25.88,0s13.71-2.87,13.71-2.87-3.71-4.75-3.33-5.12a2.75,2.75,0,0,0-.75-3.5c-1.5-1.12-3.5-2.75-3.5-4.62s1-2.62-6.87-2.37-31.12-1.22-31.87,0-1.87,4-1.75,5.55-2.37,1.75-3.12,3.13.55,3.63-.54,3.75S96.63,229,96.63,229Z" transform="translate(-44.3 -20.71)"/><path class="cls-5" d="M72.27,271s5.06-18,9.4-20.16,9.51-10.68,16.92-7.9,11.58,9.56,10.58,12.74-4.5,15.32-4.5,15.32Z" transform="translate(-44.3 -20.71)"/><path class="cls-5" d="M165.33,270.48s-1-9.8-2.67-14.7-6.33-14.33-13-13.38-12.67,4.15-13.33,11.12-1,17.15-1,17.15Z" transform="translate(-44.3 -20.71)"/><path class="cls-13" d="M113,49.28s5.37.85,7,.85,6.07-3,7.7-3.17,5.33,1.42,6.46,1.54,2.75-1.38,4.75-1.13S144.25,50,146.13,50s8.14.14,8.14.14a59.78,59.78,0,0,1-5.76,5.73c-2.12,1.63-3.75,3.63-9.5,5.25s-11.12-.25-14.25-1.87S113,49.28,113,49.28Z" transform="translate(-44.3 -20.71)"/><path class="cls-7" d="M108,49.5s5.83-.5,7.17,0,5,3.5,6.67,3.5,4.2-3.33,6.42-2.47,4.08,2.8,5.75,2.47,3.24-2.45,5.41-2.28,3.26,1.55,5.26,2.33,6.08-2.22,8.08-2.72,6.92,0,6.92,0-5.83.58-6.67.75a49,49,0,0,0-5.17,2.67,5.66,5.66,0,0,1-4.33,0c-.67-.17-3.42-1.83-4.67-1.67s-3.08,1.63-4.75,1.86-4.79-1.14-5.21-1.41a2.77,2.77,0,0,0-2.21-.45,18.24,18.24,0,0,0-3.42,1.33,2.71,2.71,0,0,1-2.67.56c-.74-.2-3.67-3.14-5.08-3.47S108,49.5,108,49.5Z" transform="translate(-44.3 -20.71)"/><path class="cls-7" d="M123.08,58.16a55.42,55.42,0,0,0,4.58,3.17c1.75,1,5.42,1.33,7.92,1.33a12.91,12.91,0,0,0,5.12-.92,41.87,41.87,0,0,0,4.4-3.25,26.1,26.1,0,0,1-5.92,2.08,61,61,0,0,1-9,0C127.85,60.33,123.08,58.16,123.08,58.16Z" transform="translate(-44.3 -20.71)"/></svg>