<svg id="Layer_1" data-name="Layer 1" xmlns="http://www.w3.org/2000/svg" viewBox="0 0 44.38 45.29"><defs><style>.cls-1{fill:#f9f9f9;}.cls-2{fill:none;stroke:#f7f8f9;stroke-miterlimit:10;}</style></defs><title>snowflake</title><path class="cls-1" d="M144.54,122.44l-.9,43.61s1.88-18.49,2.21-23.62S144.54,122.44,144.54,122.44Z" transform="translate(-121.76 -121.17)"/><polyline class="cls-2" points="14.62 44.88 21.99 39.66 27.36 44.88"/><polyline class="cls-2" points="18.54 2.25 23.13 4.68 29.81 1.27"/><path class="cls-1" d="M165.77,143.09l-43.59-1.36s18.47,2.08,23.59,2.46S165.77,143.09,165.77,143.09Z" transform="translate(-121.76 -121.17)"/><polyline class="cls-2" points="0.49 13.29 5.64 20.72 0.35 26.03"/><polyline class="cls-2" points="43.07 17.66 40.6 22.23 43.93 28.94"/><path class="cls-1" d="M158.6,158.46l-29.44-32.18s11.4,14.68,14.7,18.61S158.6,158.46,158.6,158.46Z" transform="translate(-121.76 -121.17)"/><polyline class="cls-2" points="12.66 0.1 10.93 8.97 3.44 8.89"/><polyline class="cls-2" points="39.24 33.65 34.24 35.07 31.76 42.14"/><path class="cls-1" d="M132.15,159.19l27.37-34s-12.79,13.48-16.18,17.34S132.15,159.19,132.15,159.19Z" transform="translate(-121.76 -121.17)"/><polyline class="cls-2" points="43.51 8.5 34.48 8.13 33.43 0.72"/><polyline class="cls-2" points="14.35 39.84 12.19 35.12 4.83 33.73"/></svg>