<svg id="Layer_1" data-name="Layer 1" xmlns="http://www.w3.org/2000/svg" viewBox="0 0 44.38 45.28"><defs><style>.cls-1{fill:#fff;}.cls-2{fill:none;stroke:#fff;stroke-miterlimit:10;}</style></defs><title>snowflake</title><path class="cls-1" d="M22.78,1.27l-.9,43.61s1.88-18.49,2.21-23.62S22.78,1.27,22.78,1.27Z" transform="translate(0 0)"/><polyline class="cls-2" points="14.62 44.88 21.99 39.66 27.36 44.88"/><polyline class="cls-2" points="18.54 2.25 23.13 4.68 29.81 1.27"/><path class="cls-1" d="M44,21.92.42,20.56S18.89,22.64,24,23,44,21.92,44,21.92Z" transform="translate(0 0)"/><polyline class="cls-2" points="0.49 13.29 5.64 20.72 0.35 26.03"/><polyline class="cls-2" points="43.07 17.66 40.6 22.23 43.93 28.94"/><path class="cls-1" d="M36.84,37.29,7.4,5.11S18.8,19.79,22.1,23.72,36.84,37.29,36.84,37.29Z" transform="translate(0 0)"/><polyline class="cls-2" points="12.66 0.1 10.93 8.97 3.44 8.89"/><polyline class="cls-2" points="39.24 33.65 34.24 35.07 31.76 42.14"/><path class="cls-1" d="M10.39,38,37.76,4S25,17.5,21.58,21.36,10.39,38,10.39,38Z" transform="translate(0 0)"/><polyline class="cls-2" points="43.51 8.5 34.48 8.13 33.43 0.72"/><polyline class="cls-2" points="14.35 39.84 12.19 35.12 4.83 33.73"/></svg>