<svg id="Layer_1" data-name="Layer 1" xmlns="http://www.w3.org/2000/svg" viewBox="0 0 302.72 126.5"><defs><style>.cls-1{fill:#b3e8f4;}.cls-2{fill:#e7f7f5;}</style></defs><title>breeze</title><path class="cls-1" d="M53.87,86.6C65.19,74.4,82.45,63.7,109.5,63.1S157.86,66.39,182.58,81c23.1,13.69,67.18,20.85,83.24,8.79s32.94-37.76,32.94-37.76,8.71,61.81-9.26,84c-39.57,48.79-119.75,16.31-135.54,9.1-34.38-15.69-98.21-6-119,4.5C20.31,157,4,167.71,4,167.71S36.08,105.79,53.87,86.6Z" transform="translate(-4.01 -52.06)"/><path class="cls-2" d="M59.73,99.69C71,87.49,88.3,76.79,115.36,76.19s48.36,3.29,73.08,17.94c23.1,13.69,67.18,20.85,83.24,8.79s32.94-37.76,32.94-37.76,8.71,61.81-9.26,84c-39.57,48.79-119.75,16.31-135.54,9.1-34.38-15.69-98.21-6-119,4.5a287,287,0,0,0-27.3,15.83S41.94,118.88,59.73,99.69Z" transform="translate(-4.01 -52.06)"/></svg>