<svg id="Layer_1" data-name="Layer 1" xmlns="http://www.w3.org/2000/svg" xmlns:xlink="http://www.w3.org/1999/xlink" viewBox="0 0 533.3 353.56"><defs><style>.cls-1{fill:#93ddf9;}.cls-2{fill:#f9f9f9;}.cls-3{fill:none;stroke:#d6d6d6;stroke-miterlimit:10;}</style></defs><title>christmas</title><rect class="cls-1" width="448.5" height="353.49"/><path class="cls-2" d="M1.16,259.34s52.77-32.63,75.56-32.26S151,238.2,164.49,239.31,265,221.51,281.39,220.4c9.31-.63,57.14-11.87,76.57-14.46s91.39,1.85,91.39,1.85V354.71H1.16Z" transform="translate(-0.8 -1.14)"/><image width="640" height="360" transform="translate(16.79 58.23) scale(0.81)" xlink:href="../../../../../../../Volumes/NO NAME/3rd yr Fall 2016/Web Design 2/Project 3/images/ChristmasCookieLatte.png"/><path class="cls-2" d="M108.81,329.84l115.19,23H426.46l-1.88-87.41s-39,9.13-65.36,24.19-28.32,19.88-73.13,5.57-51.16-18.08-103.25-13.32S68.33,312.58,68.33,312.58Z" transform="translate(-0.8 -1.14)"/><path class="cls-3" d="M79.9,306.47s113.42-33,156.79-24.72c24.4,4.64,49.8,14.86,71.14,19.77,9.6,2.21,18.71,3.62,25.83,1.11,5.62-2,10.6-3.47,14.6-6.62,16.92-13.3,57.59-22.85,57.59-22.85" transform="translate(-0.8 -1.14)"/></svg>