<svg id="Layer_1" data-name="Layer 1" xmlns="http://www.w3.org/2000/svg" viewBox="0 0 104.97 107.55"><defs><style>.cls-1{fill:#f9f9f9;}.cls-2{fill:none;stroke:#f7f8f9;stroke-miterlimit:10;}</style></defs><title>snowflake</title><path class="cls-1" d="M76.62,29.6,74.47,133.83S79,89.64,79.74,77.38,76.62,29.6,76.62,29.6Z" transform="translate(-22.66 -26.69)"/><polyline class="cls-2" points="34.44 107.14 52.07 94.66 64.9 107.14"/><polyline class="cls-2" points="43.81 5.25 54.8 11.04 70.75 2.91"/><path class="cls-1" d="M127.35,79,23.15,75.69s44.15,5,56.39,5.87S127.35,79,127.35,79Z" transform="translate(-22.66 -26.69)"/><polyline class="cls-2" points="0.68 31.64 12.98 49.4 0.35 62.09"/><polyline class="cls-2" points="102.46 42.09 96.56 53.01 104.52 69.05"/><path class="cls-1" d="M110.23,115.69,39.86,38.77S67.1,73.86,75,83.27,110.23,115.69,110.23,115.69Z" transform="translate(-22.66 -26.69)"/><polyline class="cls-2" points="29.77 0.1 25.63 21.3 7.73 21.11"/><polyline class="cls-2" points="93.3 80.3 81.36 83.69 75.42 100.59"/><path class="cls-1" d="M47,117.44l65.42-81.18S81.85,68.5,73.74,77.72,47,117.44,47,117.44Z" transform="translate(-22.66 -26.69)"/><polyline class="cls-2" points="103.51 20.2 81.92 19.3 79.41 1.58"/><polyline class="cls-2" points="33.81 95.1 28.66 83.81 11.06 80.49"/></svg>