<svg id="Layer_1" data-name="Layer 1" xmlns="http://www.w3.org/2000/svg" viewBox="0 0 304.29 169.45"><defs><style>.cls-1{fill:#ae9eaf;}.cls-2{fill:#d1b4d3;}</style></defs><title>cloud</title><path class="cls-1" d="M122.35,116.58s13.44-28.53,25.46-34.76,31.65-15.6,51.69-12.48,41.72,20,47.06,26.71,11.44,21.37,11.44,24V130a64.26,64.26,0,0,1,19.9,4.34c6.68,2.8,12.75,8.82,15.14,11.58,5.79,6.68,7.12-.42,17.37,1.79s26.27,20,20.93,33.83-12.47,18.7-18.7,19.15a69.72,69.72,0,0,0-13.36,2.67s-11.13,12-17.81,15.14-19.15,6.68-32.5,6.68S213.34,210,213.34,210s-8.46,5.34-16.92,6.68-20,2.23-24,.89a89,89,0,0,1-9.35-4s-7.57,8-14.25,9.8-20,3.12-28.94-1.78-17.37-20.48-17.37-20.48-14.25,6.68-24,6.68S53.93,206,42.35,198A32.08,32.08,0,0,1,28.1,172.19c0-6.23,6.68-20.46,12.91-24.48s17.81-10.25,27.16-9.81,20,2.23,20,2.23-.45-12.47,3.12-15.58,11.13-10.69,17.37-10.69S122.35,116.58,122.35,116.58Z" transform="translate(-28.1 -55.73)"/><path class="cls-2" d="M122.35,103.58s13.44-28.53,25.46-34.76,31.65-15.6,51.69-12.48,41.72,20,47.06,26.71,11.44,21.37,11.44,24V117a64.26,64.26,0,0,1,19.9,4.34c6.68,2.8,12.75,8.82,15.14,11.58,5.79,6.68,7.12-.42,17.37,1.79s26.27,20,20.93,33.83-12.47,18.7-18.7,19.15a69.72,69.72,0,0,0-13.36,2.67s-11.13,12-17.81,15.14-19.15,6.68-32.5,6.68S213.34,197,213.34,197s-8.46,5.34-16.92,6.68-20,2.23-24,.89a89,89,0,0,1-9.35-4s-7.57,8-14.25,9.8-20,3.12-28.94-1.78-17.37-20.48-17.37-20.48-14.25,6.68-24,6.68S53.93,193,42.35,185A32.08,32.08,0,0,1,28.1,159.19c0-6.23,6.68-20.46,12.91-24.48s17.81-10.25,27.16-9.81,20,2.23,20,2.23,1-11.47,3.12-15.58,11.13-10.69,17.37-10.69S122.35,103.58,122.35,103.58Z" transform="translate(-28.1 -55.73)"/></svg>