<svg id="Layer_1" data-name="Layer 1" xmlns="http://www.w3.org/2000/svg" viewBox="0 0 259.5 256.76"><defs><style>.cls-1{fill:#cdacdd;}.cls-2{fill:#c69edd;}.cls-3{fill:#dbcae5;}.cls-4{fill:#ede4f4;}.cls-5{fill:#ba91d8;}</style></defs><title>invitation</title><rect class="cls-1" y="59.76" width="259" height="197"/><path class="cls-2" d="M50.5,138s50.93-49.14,66.41-55.48,124.55-5.69,137.21,2.24C275.73,98.28,309.5,138,309.5,138Z" transform="translate(-50 -78.24)"/><path class="cls-3" d="M59.45,145.4c1.94-.19,3.62,4.13,7.23,2.93s5-4.39,7.06-4.31,4.48,4.75,6.89,4.53S86,143.38,88,144c1.31.4,1.38,5.11,3.1,4.53s4.63-4.54,6-3.5c2,1.48-2.93,9.13-1,9.82s4.76-.06,5,1.21c.3,1.63-4.65,2.76-3.1,5.86s4.56,2.15,4.65,3.62c.13,2.17-10,2.93-6.72,5.51s6.43.81,6.72,2.58c.33,2-9.3,3.13-6,5.35s6.14,1.4,6,3.09c-.09,1.38-5.86,1-4.48,3.27s5.82,5.08,4.48,6.55c-1.69,1.85-7.58-4.48-9.82-2.07s-.92,5.29-2.41,5.51c-1.66.25-2.76-7.41-4.82-4.65s-2.08,5.78-3.79,5.68c-2-.11-3.27-7.23-5.34-6s-.8,5.86-2.41,6c-1.9.2-2.41-8.27-4.48-6.2s-2.66,6.8-4.48,6.2,1-9-2.41-7.06-4.1,6.25-5.86,5.34c-2.34-1.21,3.27-9.13,1-10.51s-4.56-.16-5-1.38c-.56-1.6,6.2-5,4-5.51s-4.64-.3-4.82-1.55c-.21-1.48,5.51-4.31,4.13-4.31s-4.06-.13-4.13-1.21c-.14-1.91,6.89-4.31,5.34-5.51s-5.08-.5-5.34-1.89c-.34-1.83,5.68-3.44,5.68-4.82s-5.51-.25-5.68-1.72c-.19-1.69,6.37-1.89,5.51-4S57.67,145.58,59.45,145.4Z" transform="translate(-50 -78.24)"/><rect class="cls-4" x="12.02" y="73.7" width="30.96" height="35.89"/><rect class="cls-5" x="57.84" y="148.33" width="144.98" height="1.1"/><rect class="cls-5" x="57.84" y="164.26" width="144.98" height="1.1"/><rect class="cls-5" x="57.84" y="180.18" width="144.98" height="1.1"/></svg>